<?xml version="1.0" encoding="UTF-8" standalone="no"?>
<!DOCTYPE svg PUBLIC "-//W3C//DTD SVG 1.1//EN"
 "http://www.w3.org/Graphics/SVG/1.1/DTD/svg11.dtd">
<!-- Generated by graphviz version 2.43.0 (0)
 -->
<!-- Title: G Pages: 1 -->
<svg width="482pt" height="230pt"
 viewBox="0.00 0.00 482.20 230.20" xmlns="http://www.w3.org/2000/svg" xmlns:xlink="http://www.w3.org/1999/xlink">
<g id="graph0" class="graph" transform="scale(1 1) rotate(0) translate(21.6 208.6)">
<title>G</title>
<polygon fill="#111111" stroke="transparent" points="-21.6,21.6 -21.6,-208.6 460.6,-208.6 460.6,21.6 -21.6,21.6"/>
<!-- App.jsx -->
<g id="node1" class="node">
<title>App.jsx</title>
<path fill="none" stroke="#c6c5fe" d="M162.33,-105C162.33,-105 116.67,-105 116.67,-105 112.83,-105 109,-101.17 109,-97.33 109,-97.33 109,-89.67 109,-89.67 109,-85.83 112.83,-82 116.67,-82 116.67,-82 162.33,-82 162.33,-82 166.17,-82 170,-85.83 170,-89.67 170,-89.67 170,-97.33 170,-97.33 170,-101.17 166.17,-105 162.33,-105"/>
<text text-anchor="middle" x="139.5" y="-89.8" font-family="Arial" font-size="14.00" fill="#c6c5fe">App.jsx</text>
</g>
<!-- components/ComparisonResult.jsx -->
<g id="node2" class="node">
<title>components/ComparisonResult.jsx</title>
<path fill="none" stroke="#cfffac" d="M431.33,-187C431.33,-187 219.67,-187 219.67,-187 215.83,-187 212,-183.17 212,-179.33 212,-179.33 212,-171.67 212,-171.67 212,-167.83 215.83,-164 219.67,-164 219.67,-164 431.33,-164 431.33,-164 435.17,-164 439,-167.83 439,-171.67 439,-171.67 439,-179.33 439,-179.33 439,-183.17 435.17,-187 431.33,-187"/>
<text text-anchor="middle" x="325.5" y="-171.8" font-family="Arial" font-size="14.00" fill="#cfffac">components/ComparisonResult.jsx</text>
</g>
<!-- App.jsx&#45;&gt;components/ComparisonResult.jsx -->
<g id="edge1" class="edge">
<title>App.jsx&#45;&gt;components/ComparisonResult.jsx</title>
<path fill="none" stroke="#757575" d="M150.3,-105.21C162.99,-119.53 186.49,-143.33 212,-155.5 216.04,-157.43 220.24,-159.17 224.54,-160.74"/>
<polygon fill="#757575" stroke="#757575" points="223.5,-164.09 234.09,-163.93 225.71,-157.45 223.5,-164.09"/>
</g>
<!-- components/Header.jsx -->
<g id="node3" class="node">
<title>components/Header.jsx</title>
<path fill="none" stroke="#cfffac" d="M396.83,-146C396.83,-146 254.17,-146 254.17,-146 250.33,-146 246.5,-142.17 246.5,-138.33 246.5,-138.33 246.5,-130.67 246.5,-130.67 246.5,-126.83 250.33,-123 254.17,-123 254.17,-123 396.83,-123 396.83,-123 400.67,-123 404.5,-126.83 404.5,-130.67 404.5,-130.67 404.5,-138.33 404.5,-138.33 404.5,-142.17 400.67,-146 396.83,-146"/>
<text text-anchor="middle" x="325.5" y="-130.8" font-family="Arial" font-size="14.00" fill="#cfffac">components/Header.jsx</text>
</g>
<!-- App.jsx&#45;&gt;components/Header.jsx -->
<g id="edge2" class="edge">
<title>App.jsx&#45;&gt;components/Header.jsx</title>
<path fill="none" stroke="#757575" d="M170.22,-103.02C183,-106.91 198.15,-111.24 212,-114.5 221.95,-116.84 232.45,-119.05 242.89,-121.08"/>
<polygon fill="#757575" stroke="#757575" points="242.36,-124.54 252.84,-122.98 243.67,-117.67 242.36,-124.54"/>
</g>
<!-- components/TranslationChain.jsx -->
<g id="node4" class="node">
<title>components/TranslationChain.jsx</title>
<path fill="none" stroke="#cfffac" d="M426.33,-105C426.33,-105 224.67,-105 224.67,-105 220.83,-105 217,-101.17 217,-97.33 217,-97.33 217,-89.67 217,-89.67 217,-85.83 220.83,-82 224.67,-82 224.67,-82 426.33,-82 426.33,-82 430.17,-82 434,-85.83 434,-89.67 434,-89.67 434,-97.33 434,-97.33 434,-101.17 430.17,-105 426.33,-105"/>
<text text-anchor="middle" x="325.5" y="-89.8" font-family="Arial" font-size="14.00" fill="#cfffac">components/TranslationChain.jsx</text>
</g>
<!-- App.jsx&#45;&gt;components/TranslationChain.jsx -->
<g id="edge3" class="edge">
<title>App.jsx&#45;&gt;components/TranslationChain.jsx</title>
<path fill="none" stroke="#757575" d="M170.06,-93.5C180.59,-93.5 193.17,-93.5 206.56,-93.5"/>
<polygon fill="#757575" stroke="#757575" points="206.93,-97 216.93,-93.5 206.93,-90 206.93,-97"/>
</g>
<!-- components/TranslationInput.jsx -->
<g id="node5" class="node">
<title>components/TranslationInput.jsx</title>
<path fill="none" stroke="#cfffac" d="M423.83,-64C423.83,-64 227.17,-64 227.17,-64 223.33,-64 219.5,-60.17 219.5,-56.33 219.5,-56.33 219.5,-48.67 219.5,-48.67 219.5,-44.83 223.33,-41 227.17,-41 227.17,-41 423.83,-41 423.83,-41 427.67,-41 431.5,-44.83 431.5,-48.67 431.5,-48.67 431.5,-56.33 431.5,-56.33 431.5,-60.17 427.67,-64 423.83,-64"/>
<text text-anchor="middle" x="325.5" y="-48.8" font-family="Arial" font-size="14.00" fill="#cfffac">components/TranslationInput.jsx</text>
</g>
<!-- App.jsx&#45;&gt;components/TranslationInput.jsx -->
<g id="edge4" class="edge">
<title>App.jsx&#45;&gt;components/TranslationInput.jsx</title>
<path fill="none" stroke="#757575" d="M170.27,-84.54C183.05,-80.86 198.19,-76.71 212,-73.5 223.41,-70.84 235.54,-68.3 247.45,-65.95"/>
<polygon fill="#757575" stroke="#757575" points="248.22,-69.36 257.37,-64.03 246.89,-62.49 248.22,-69.36"/>
</g>
<!-- services/translationService.js -->
<g id="node6" class="node">
<title>services/translationService.js</title>
<path fill="none" stroke="#cfffac" d="M413.33,-23C413.33,-23 237.67,-23 237.67,-23 233.83,-23 230,-19.17 230,-15.33 230,-15.33 230,-7.67 230,-7.67 230,-3.83 233.83,0 237.67,0 237.67,0 413.33,0 413.33,0 417.17,0 421,-3.83 421,-7.67 421,-7.67 421,-15.33 421,-15.33 421,-19.17 417.17,-23 413.33,-23"/>
<text text-anchor="middle" x="325.5" y="-7.8" font-family="Arial" font-size="14.00" fill="#cfffac">services/translationService.js</text>
</g>
<!-- App.jsx&#45;&gt;services/translationService.js -->
<g id="edge5" class="edge">
<title>App.jsx&#45;&gt;services/translationService.js</title>
<path fill="none" stroke="#757575" d="M163.8,-81.92C168.04,-79.4 172.28,-76.55 176,-73.5 195,-57.9 190.65,-43.7 212,-31.5 214.89,-29.85 217.87,-28.33 220.94,-26.94"/>
<polygon fill="#757575" stroke="#757575" points="222.42,-30.11 230.35,-23.09 219.77,-23.63 222.42,-30.11"/>
</g>
<!-- index.css -->
<g id="node7" class="node">
<title>index.css</title>
<path fill="none" stroke="#cfffac" d="M168.33,-64C168.33,-64 110.67,-64 110.67,-64 106.83,-64 103,-60.17 103,-56.33 103,-56.33 103,-48.67 103,-48.67 103,-44.83 106.83,-41 110.67,-41 110.67,-41 168.33,-41 168.33,-41 172.17,-41 176,-44.83 176,-48.67 176,-48.67 176,-56.33 176,-56.33 176,-60.17 172.17,-64 168.33,-64"/>
<text text-anchor="middle" x="139.5" y="-48.8" font-family="Arial" font-size="14.00" fill="#cfffac">index.css</text>
</g>
<!-- main.jsx -->
<g id="node8" class="node">
<title>main.jsx</title>
<path fill="none" stroke="#c6c5fe" d="M59.33,-84C59.33,-84 7.67,-84 7.67,-84 3.83,-84 0,-80.17 0,-76.33 0,-76.33 0,-68.67 0,-68.67 0,-64.83 3.83,-61 7.67,-61 7.67,-61 59.33,-61 59.33,-61 63.17,-61 67,-64.83 67,-68.67 67,-68.67 67,-76.33 67,-76.33 67,-80.17 63.17,-84 59.33,-84"/>
<text text-anchor="middle" x="33.5" y="-68.8" font-family="Arial" font-size="14.00" fill="#c6c5fe">main.jsx</text>
</g>
<!-- main.jsx&#45;&gt;App.jsx -->
<g id="edge6" class="edge">
<title>main.jsx&#45;&gt;App.jsx</title>
<path fill="none" stroke="#757575" d="M67.12,-79.09C77.23,-81.13 88.49,-83.4 99.01,-85.53"/>
<polygon fill="#757575" stroke="#757575" points="98.32,-88.96 108.82,-87.51 99.71,-82.1 98.32,-88.96"/>
</g>
<!-- main.jsx&#45;&gt;index.css -->
<g id="edge7" class="edge">
<title>main.jsx&#45;&gt;index.css</title>
<path fill="none" stroke="#757575" d="M67.12,-66.23C75.26,-64.66 84.13,-62.96 92.77,-61.29"/>
<polygon fill="#757575" stroke="#757575" points="93.59,-64.7 102.74,-59.38 92.26,-57.83 93.59,-64.7"/>
</g>
</g>
</svg>
